<?xml version="1.0" encoding="UTF-8" standalone="no" ?>
<!DOCTYPE svg PUBLIC "-//W3C//DTD SVG 1.1//EN" "http://www.w3.org/Graphics/SVG/1.1/DTD/svg11.dtd">
<svg xmlns="http://www.w3.org/2000/svg" xmlns:xlink="http://www.w3.org/1999/xlink" version="1.1" width="1280" height="1024" viewBox="0 0 1280 1024" xml:space="preserve">
<desc>Created with Fabric.js 5.3.0</desc>
<defs>
</defs>
<g transform="matrix(1 0 0 1 640 512)" id="background-logo"  >
<rect style="stroke: none; stroke-width: 0; stroke-dasharray: none; stroke-linecap: butt; stroke-dashoffset: 0; stroke-linejoin: miter; stroke-miterlimit: 4; fill: rgb(255,255,255); fill-opacity: 0; fill-rule: nonzero; opacity: 1;"  paint-order="stroke"  x="-640" y="-512" rx="0" ry="0" width="1280" height="1024" />
</g>
<g transform="matrix(4.659612182177489 0 0 4.659612182177489 639.363332418229 511.6473841085576)" id="logo-logo"  >
<g style=""  paint-order="stroke"   >
		<g transform="matrix(0.2956351515087008 0 0 0.2956351515087008 -45.2840284997888 -27.826673639240454)"  >
<linearGradient id="SVGID_15_199153" gradientUnits="userSpaceOnUse" gradientTransform="matrix(1 0 0 1 0 0)"  x1="645.8125197" y1="402.8240172" x2="161.8625683" y2="402.8240172">
<stop offset="0%" style="stop-color:rgb(32,209,196);stop-opacity: 1"/>
<stop offset="100%" style="stop-color:rgb(0,75,150);stop-opacity: 1"/>
</linearGradient>
<path style="stroke: none; stroke-width: 1; stroke-dasharray: none; stroke-linecap: butt; stroke-dashoffset: 0; stroke-linejoin: miter; stroke-miterlimit: 4; fill: url(#SVGID_15_199153); fill-rule: nonzero; opacity: 1;"  paint-order="stroke"  transform=" translate(-355.88313432317716, -402.82401725)" d="M 537.5151428 136.9146273 C 537.5151428 136.9146273 300.3347163 136.9146273 189.33604850000006 346.7561245 C 96.72165680000006 521.8423934 203.99624990000007 668.7334072 203.99624990000007 668.7334072 C 203.99624990000007 668.7334072 193.52467740000006 534.69728 355.83405030000006 486.5280467 C 463.2540741 454.6485557 560.107303 444.67428160000003 560.107303 444.67428160000003 L 457.6079985 377.1055938 L 433.99445280000003 302.2283717 L 433.99445280000003 241.4932516 C 433.99445280000003 241.4932516 486.41179150000005 170.286559 486.41179150000005 170.286559 L 537.5151429 136.9146273 Z" stroke-linecap="round" />
</g>
		<g transform="matrix(0.2956351515087008 0 0 0.2956351515087008 8.412779583263045 -60.94655192223374)"  >
<linearGradient id="SVGID_16_199154" gradientUnits="userSpaceOnUse" gradientTransform="matrix(1 0 0 1 0 0)"  x1="567.8650096" y1="290.7944492" x2="401.0665861" y2="290.7944492">
<stop offset="0%" style="stop-color:rgb(32,209,196);stop-opacity: 1"/>
<stop offset="100%" style="stop-color:rgb(0,75,150);stop-opacity: 1"/>
</linearGradient>
<path style="stroke: none; stroke-width: 1; stroke-dasharray: none; stroke-linecap: butt; stroke-dashoffset: 0; stroke-linejoin: miter; stroke-miterlimit: 4; fill: url(#SVGID_16_199154); fill-rule: nonzero; opacity: 1;"  paint-order="stroke"  transform=" translate(-537.5151486794655, -290.7944493384233)" d="M 649.2941284 387.9466553 C 631.5731201 397.3726197 622.138916 408.1150513 600.4570923 414.56536869999996 C 470.253418 453.3010865 400.2702027 277.05541999999997 479.3540039 192.31597909999996 C 510.19281010000003 159.27172859999996 553.8531494 151.23822029999997 596.6671753 163.25567639999997 C 601.81604 164.70092789999998 614.6174316 170.73449719999996 618.2925415000001 170.84130869999996 C 623.0263061 170.97888189999995 625.1787109 166.80584729999995 623.3361816 162.76641859999995 C 622.4020385 160.71832289999995 611.1029663 153.97662369999995 608.4127807 152.51629649999995 C 553.5110473 122.71392829999995 487.1705932 136.65100109999995 448.7861328 185.41748059999995 C 369.7666016 285.80975349999994 446.8718872 475.5704956999999 586.0255127 440.3815308999999 C 606.7867432 435.1314698999999 646.6791992000001 413.84564219999993 656.9068604 394.55261239999993 C 660.1013794 388.5266724999999 655.6812745 384.5493164999999 649.2941285 387.94665539999994 Z" stroke-linecap="round" />
</g>
		<g transform="matrix(0.2956351515087008 0 0 0.2956351515087008 42.23784425765655 -64.1600352753344)"  >
<linearGradient id="SVGID_17_199155" gradientUnits="userSpaceOnUse" gradientTransform="matrix(1 0 0 1 0 0)"  x1="754.6096226" y1="279.9246886" x2="450.0356947" y2="279.9246886">
<stop offset="0%" style="stop-color:rgb(32,209,196);stop-opacity: 1"/>
<stop offset="100%" style="stop-color:rgb(0,75,150);stop-opacity: 1"/>
</linearGradient>
<path style="stroke: none; stroke-width: 1; stroke-dasharray: none; stroke-linecap: butt; stroke-dashoffset: 0; stroke-linejoin: miter; stroke-miterlimit: 4; fill: url(#SVGID_17_199155); fill-rule: nonzero; opacity: 1;"  paint-order="stroke"  transform=" translate(-651.9300431931106, -279.9246886326971)" d="M 833.6549448 271.3924116 C 825.8126596 260.6736616 811.2919076999999 259.3206343 801.8951791999999 268.8665327 C 799.6449350999999 271.1526655 799.1844858 274.9231733 796.4027475999999 275.4485639 C 779.1991342999999 274.25276310000004 759.9715952999999 277.0266889 743.0277475999999 275.48713810000004 C 725.0575327999999 273.85432560000004 715.5922006999999 253.89729430000003 699.7923959999998 252.31379830000003 C 688.3246225999998 251.16438420000003 674.3934701999998 252.61506780000002 662.5333627999998 252.34358350000002 C 606.3314584999998 251.05598580000003 549.8846811999998 251.11799760000002 493.54386079999983 251.30549760000002 C 458.2914193999998 256.4314742 456.15909519999985 304.5115523 491.7818978999998 311.4075484 L 707.6122201999998 311.4261031 C 712.4567025999997 310.60969689999996 717.8412240999997 306.88118119999996 716.2338021999998 301.326982 C 715.3019173999998 298.1067672 699.4149544999998 290.1292281 695.6910775999997 289.6194625 C 678.8746713999998 287.31526329999997 658.1258920999998 291.5232711 640.8893197999997 289.0804 C 632.2650521999997 285.1761031 634.2513802999997 275.4886031 643.4344857999997 274.4153609 C 654.3585580999998 273.1385054 686.8009408999998 273.1477828 697.5292123999998 274.7005171 C 706.5560678999998 276.0071577 717.5931771999998 284.77034130000004 726.4798959999998 288.01008740000003 C 743.9698861999998 294.38508740000003 764.9274057999999 290.49153270000005 783.3595346999998 291.50227490000003 C 785.7137826999998 291.63118110000005 796.1586069999998 292.3445601 797.2421030999998 292.71223580000003 C 798.3397592999997 293.0847944 803.6190561999998 300.72004830000003 806.6088022999998 302.46321240000003 C 826.1461557999997 313.85725540000004 846.8014292999998 289.36067330000003 833.6549448999998 271.39241160000006 Z M 814.7345346 290.3655561 C 807.0665657999999 288.1546186 810.1798471 274.9451459 819.3234017999999 277.6614545 C 826.1864389 279.7000287 823.3578256 292.8523725 814.7345346 290.3655561 Z M 755.7486948 337.426103 C 753.5414194 339.4597944 751.8231576999999 344.3611616 749.1161264 344.8802046 C 728.6664194 342.7161421 699.407142 349.4529585 680.8104622999999 340.722978 C 673.0106576 337.0608686 666.7504036999999 329.551103 658.4855110999999 326.8245405 L 522.7257454999999 326.7718061 C 491.7743294999999 332.176103 495.6883919999999 373.9397749 525.6969368999999 377.1057905 L 657.0965950999998 376.6223921 C 664.3522102999998 375.5476851 670.6676399999998 366.3430952 661.1195442999998 363.4324507 C 652.0187141999997 360.6580366 631.1737434999998 364.2581343 620.2923958999997 363.0056929 C 609.9410774999998 361.81428669999997 610.1151497999997 348.2713179 622.3280403999997 346.8850874 C 629.4398567999997 346.0774702 650.4925911999998 345.9812788 657.3046028999997 347.1233686 C 663.4237434999998 348.1497358 672.0423958999997 355.2346967 678.9339973999997 357.6922163 C 699.9115364999998 365.1731733 728.1969368999997 358.6946577 750.4154426999997 361.1800093 C 761.3949348999997 386.4344038 797.4906379999998 372.6096968 789.5775520999997 346.6624312 C 785.1207649999997 332.0481734 767.1422493999997 326.9290328 755.7486946999998 337.42610310000003 Z M 768.4686655 359.8084272 C 760.7911753000001 358.4466108 762.1554331000001 345.3557905 771.1908335 346.879228 C 778.7823862 348.1595014 777.386146 361.3899702 768.4686655 359.8084272 Z M 528.8402475 236.113603 L 660.5655893 236.2058882 C 675.75431 230.8142866 677.7323373 223.2342085 695.7372202 222.0740523 C 701.2294077 221.7200484 740.585853 221.37434530000002 742.5836557 222.6028609 C 743.6713022 223.2718062 744.3509897 226.261064 745.5846323 227.6512007 C 764.2406381999999 248.6790327 792.5323861999999 225.9783491 779.8292611999999 203.4685835 C 773.1644663 191.6590132 756.3168099999999 190.38069289999999 747.0633920999999 199.945146 C 745.8129037999998 201.2376265 743.6708139999998 205.632646 743.3719858999999 205.8074507 C 741.2726207 207.0340132 702.5682749999999 205.60774370000001 695.7889780999999 206.026689 C 682.2464975999999 206.8640913 674.5643686999999 212.4187788 664.5275034999999 214.00666950000002 C 658.3070444999998 214.99104450000002 631.6258921999998 214.99153280000002 625.4027475999999 214.00959920000003 C 617.4300913999999 212.75178670000003 616.4422983999999 202.84993120000001 623.5814584999999 201.25666950000002 C 632.4161753 199.2849898 658.7748178999999 203.86555620000001 664.1232064999999 198.5115523 C 669.6134408999999 193.0154585 660.2997201999999 185.70979450000002 654.8417123999999 184.5706343 C 616.4059213999999 185.8157515 572.7721322999998 180.5511031 534.7528451999999 183.8450484 C 503.2225717999999 186.576982 500.3050912999999 227.3284468 528.8402474999999 236.1136031 Z M 758.9037241 208.7776655 C 769.4215464 203.8245405 773.0389779999999 223.5403608 760.4149546 220.9334272 C 754.7298959999999 219.7591108 753.9115366 211.1282514 758.9037241 208.7776655 Z" stroke-linecap="round" />
</g>
		<g transform="matrix(0.2956351515087008 0 0 0.2956351515087008 45.2840284997888 27.826673639240397)"  >
<linearGradient id="SVGID_18_199156" gradientUnits="userSpaceOnUse" gradientTransform="matrix(1 0 0 1 0 0)"  x1="540.6701984" y1="591.0741187" x2="878.6950492" y2="591.0741187">
<stop offset="0%" style="stop-color:rgb(32,209,196);stop-opacity: 1"/>
<stop offset="100%" style="stop-color:rgb(0,75,150);stop-opacity: 1"/>
</linearGradient>
<path style="stroke: none; stroke-width: 1; stroke-dasharray: none; stroke-linecap: butt; stroke-dashoffset: 0; stroke-linejoin: miter; stroke-miterlimit: 4; fill: url(#SVGID_18_199156); fill-rule: nonzero; opacity: 1;"  paint-order="stroke"  transform=" translate(-662.2339066768228, -591.0741187500003)" d="M 480.6018982 856.9835086 C 480.6018982 856.9835086 717.7823247 856.9835086 828.7809924999999 647.1420115000001 C 921.3953841999999 472.0557426000001 814.1207910999999 325.1647288000001 814.1207910999999 325.1647288000001 C 814.1207910999999 325.1647288000001 824.5923634999999 459.2008560000001 662.2829906999999 507.37008930000013 C 554.8629669 539.2495802000001 458.0097379999999 549.2238544000002 458.0097379999999 549.2238544000002 L 560.5090424999999 616.7925422000002 L 584.1225881999999 691.6697643000002 L 584.1225881999999 752.4048844000002 C 584.1225881999999 752.4048844000002 531.7052494999999 823.6115770000002 531.7052494999999 823.6115770000002 L 480.6018980999999 856.9835087000002 Z" stroke-linecap="round" />
</g>
		<g transform="matrix(0.2956351515087008 0 0 0.2956351515087008 -8.412776634700435 60.946548435796444)"  >
<linearGradient id="SVGID_19_199157" gradientUnits="userSpaceOnUse" gradientTransform="matrix(1 0 0 1 0 0)"  x1="510.951767" y1="703.1036749" x2="344.1533236" y2="703.1036749">
<stop offset="0%" style="stop-color:rgb(32,209,196);stop-opacity: 1"/>
<stop offset="100%" style="stop-color:rgb(0,75,150);stop-opacity: 1"/>
</linearGradient>
<path style="stroke: none; stroke-width: 1; stroke-dasharray: none; stroke-linecap: butt; stroke-dashoffset: 0; stroke-linejoin: miter; stroke-miterlimit: 4; fill: url(#SVGID_19_199157); fill-rule: nonzero; opacity: 1;"  paint-order="stroke"  transform=" translate(-480.60190229418816, -703.1036748685365)" d="M 432.0915527 553.5166016 C 411.3303222 558.7666625999999 371.43786620000003 580.0524291999999 361.210144 599.3455200999999 C 358.015686 605.37146 362.435791 609.348755 368.8228759 605.9514161 C 386.5439452 596.5254517 395.9781493 585.7830811 417.65991199999996 579.3327026999999 C 547.8636474 540.5969848999999 617.8468015999999 716.8427125 538.7630614 801.5821533999999 C 507.92425519999995 834.6263428999999 464.26385489999996 842.6599121999999 421.44982899999997 830.6423950999999 C 416.3010253 829.1972046999999 403.49963369999995 823.1635742999999 399.82452379999995 823.0568238 C 395.09069809999994 822.9192505999999 392.9383544 827.0922852 394.78082259999996 831.1317138999999 C 395.71502669999995 833.1798095999999 407.01403789999995 839.9214477999999 409.70428449999997 841.3817748999999 C 464.6060179 871.1842040999999 530.946472 857.2471312999999 569.3309323999999 808.4806518999999 C 648.3504635999999 708.0883789999999 571.2451779999999 518.3276367999999 432.0915524999999 553.5166015999998 Z" stroke-linecap="round" />
</g>
		<g transform="matrix(0.2956351515087008 0 0 0.2956351515087008 -42.237844228093024 64.16003523718643)"  >
<linearGradient id="SVGID_20_199158" gradientUnits="userSpaceOnUse" gradientTransform="matrix(-1 -1.2246e-16 1.2246e-16 -1 6120.4946453 -13554.2588586)"  x1="5856.9872268" y1="-14268.2323059" x2="5552.4132989" y2="-14268.2323059">
<stop offset="0%" style="stop-color:rgb(32,209,196);stop-opacity: 1"/>
<stop offset="100%" style="stop-color:rgb(0,75,150);stop-opacity: 1"/>
</linearGradient>
<path style="stroke: none; stroke-width: 1; stroke-dasharray: none; stroke-linecap: butt; stroke-dashoffset: 0; stroke-linejoin: miter; stroke-miterlimit: 4; fill: url(#SVGID_20_199158); fill-rule: nonzero; opacity: 1;"  paint-order="stroke"  transform=" translate(-366.18699790688913, -713.9734472382659)" d="M 184.4620963 722.5057242 C 192.3043815 733.2244742 206.82513340000003 734.5775015 216.22186190000002 725.0316031 C 218.47210600000003 722.7454703 218.93255530000002 718.9749625 221.71429350000003 718.4495719 C 238.91790680000003 719.6453727 258.1454458 716.8714469 275.08929350000005 718.4109977 C 293.05950830000006 720.0438102 302.5248404000001 740.0008415000001 318.32464510000005 741.5843375000001 C 329.79241850000005 742.7337516 343.7235709 741.2830680000001 355.58367830000003 741.5545523000001 C 411.78558260000005 742.8421500000001 468.2323599 742.7801382000001 524.5731803 742.5926382000001 C 559.8256216999999 737.4666616000002 561.9579459 689.3865835000001 526.3351432 682.4905874000001 L 310.5048208999999 682.4720327000001 C 305.6603384999999 683.2884389000001 300.2758169999999 687.0169546000001 301.8832388999999 692.5711538000002 C 302.8151236999999 695.7913686000002 318.7020865999999 703.7689077000001 322.4259634999999 704.2786733000002 C 339.2423696999999 706.5828725000001 359.9911489999999 702.3748647000001 377.2277212999999 704.8177358000002 C 385.8519888999999 708.7220327000001 383.86566079999994 718.4095327000001 374.68255529999993 719.4827749000001 C 363.75848299999996 720.7596304000001 331.31610019999994 720.7503530000001 320.58782869999993 719.1976186 C 311.5609731999999 717.890978 300.5238638999999 709.1277944000001 291.63714509999994 705.8880483 C 274.1471548999999 699.5130483 253.18963529999994 703.406603 234.75750639999995 702.3958608 C 232.40325839999994 702.2669545 221.95843409999995 701.5535756 220.87493799999996 701.1858999 C 219.77728179999997 700.8133412999999 214.49798489999995 693.1780874 211.50823879999996 691.4349233 C 191.97088529999996 680.0408803 171.31561179999994 704.5374624 184.46209619999996 722.5057241000001 Z M 203.3825065 703.5325797 C 211.0504752 705.7435172 207.937194 718.9529899 198.7936393 716.2366813 C 191.9306022 714.1981071 194.75921549999998 701.0457633 203.3825065 703.5325797 Z M 262.3683463 656.4720328 C 264.5756217 654.4383414 266.29388339999997 649.5369741999999 269.0009147 649.0179312 C 289.4506217 651.1819937 318.70989910000003 644.4451773000001 337.3065788 653.1751578 C 345.1063835 656.8372671999999 351.3666374 664.3470328 359.63153 667.0735953 L 495.39129560000003 667.1263296999999 C 526.3427116 661.7220328 522.4286491 619.958361 492.4201042 616.7923453 L 361.020446 617.2757437 C 353.76483079999997 618.3504507 347.4494011 627.5550406 356.99749679999996 630.4656851 C 366.09832689999996 633.2400991999999 386.94329759999994 629.6400014999999 397.82464519999996 630.8924429 C 408.1759636 632.0838492 408.00189129999995 645.6268179 395.7890007 647.0130484 C 388.67718429999996 647.8206656 367.62444989999995 647.916857 360.8124382 646.7747671 C 354.6932976 645.7483999 346.07464519999996 638.6634389999999 339.1830437 636.2059194 C 318.2055046 628.7249624 289.92010419999997 635.203478 267.70159839999997 632.7181264 C 256.7221062 607.4637319 220.62640309999998 621.2884389 228.53948899999997 647.2357045 C 232.9962761 661.8499623 250.97479169999997 666.9691029 262.36834639999995 656.4720326 Z M 249.6483756 634.0897086 C 257.32586580000003 635.451525 255.961608 648.5423453 246.9262076 647.0189078 C 239.3346549 645.7386343999999 240.7308951 632.5081656 249.6483756 634.0897086 Z M 489.2767936 757.7845329 L 357.5514518 757.6922477 C 342.3627311 763.0838493 340.3847038 770.6639274 322.3798209 771.8240836000001 C 316.8876334 772.1780875000001 277.5311881 772.5237906000001 275.53338540000004 771.2952750000001 C 274.44573890000004 770.6263297 273.76605140000004 767.6370719 272.53240880000004 766.2469352 C 253.87640290000004 745.2191032000001 225.58465490000003 767.9197868 238.28777990000003 790.4295524 C 244.95257480000004 802.2391227 261.8002311 803.5174430000001 271.05364900000006 793.9529899 C 272.30413730000004 792.6605094 274.44622710000004 788.2654899 274.74505530000005 788.0906852 C 276.84442050000007 786.8641227 315.54876620000005 788.2903922 322.32806310000007 787.8714469 C 335.8705436000001 787.0340446 343.5526725000001 781.4793571 353.58953770000005 779.8914664 C 359.80999670000006 778.9070914 386.49114900000006 778.9066031 392.7142936 779.8885367 C 400.68694980000004 781.1463492 401.6747428 791.0482047 394.5355827 792.6414664 C 385.7008659 794.6131461 359.3422233 790.0325797 353.99383470000004 795.3865836 C 348.5036003 800.8826773 357.81732100000005 808.1883414 363.2753288 809.3275016 C 401.7111198 808.0823844 445.3449089 813.3470329 483.364196 810.0530875000001 C 514.8944693999999 807.3211539 517.8119499 766.5696891 489.2767937 757.7845328000001 Z M 259.213317 785.1204703 C 248.6954947 790.0735953 245.0780631 770.357775 257.7020865 772.9647086 C 263.3871451 774.139025 264.2055045 782.7698844 259.213317 785.1204703 Z" stroke-linecap="round" />
</g>
</g>
</g>
</svg>